<mxfile host="app.diagrams.net" modified="2024-04-22T11:20:55.897Z" agent="Mozilla/5.0 (Macintosh; Intel Mac OS X 10_15_7) AppleWebKit/537.36 (KHTML, like Gecko) Chrome/123.0.0.0 Safari/537.36" version="24.2.7" etag="4wj-RrbtFwwM1W2MsMgf" type="github">
  <diagram name="Page-1" id="d0_7cTEkMM9h15mqGjMi">
    <mxGraphModel>
      <root>
        <mxCell id="0" />
        <mxCell id="1" parent="0" />
      </root>
    </mxGraphModel>
  </diagram>
</mxfile>
